<svg width="24" height="24" viewBox="0 0 24 24" fill="none" xmlns="http://www.w3.org/2000/svg">
<path fill-rule="evenodd" clip-rule="evenodd" d="M20.5833 0C22.3783 0 23.8333 1.45508 23.8333 3.25V20.5833C23.8333 22.3783 22.3783 23.8333 20.5833 23.8333H3.25C1.45508 23.8333 0 22.3783 0 20.5833V3.25C0 1.45508 1.45508 0 3.25 0H20.5833ZM20.5833 2.16667C21.1817 2.16667 21.6667 2.6517 21.6667 3.25V20.5833C21.6667 21.1817 21.1817 21.6667 20.5833 21.6667H15.1667V14.0832H17.4159C17.8822 14.0832 18.2961 13.7849 18.4436 13.3424L18.9236 11.9027C19.099 11.3765 18.7073 10.8332 18.1528 10.8332H15.1667V8.66658C15.1667 8.12491 15.7083 7.58325 16.25 7.58325H18.4167C19.015 7.58325 19.5 7.09822 19.5 6.49991V5.75676C19.5 5.40682 19.2765 5.09307 18.9381 5.00378C17.518 4.62903 16.25 4.62903 16.25 4.62903C13.5417 4.62903 11.9167 6.49991 11.9167 8.12491V10.8332H9.75C9.1517 10.8332 8.66667 11.3182 8.66667 11.9166V12.9999C8.66667 13.5982 9.15169 14.0832 9.75 14.0832H11.9167V21.6667H3.25C2.6517 21.6667 2.16667 21.1817 2.16667 20.5833V3.25C2.16667 2.6517 2.6517 2.16667 3.25 2.16667H20.5833Z" fill="#EEF4FF"/>
</svg>
